<svg width="24" height="24" viewBox="0 0 24 24" fill="currentColor" xmlns="http://www.w3.org/2000/svg">
<path d="M16.0095 5.99994C16.5617 5.99994 17.0094 6.44768 17.0095 6.99994C17.0095 7.55223 16.5618 7.99994 16.0095 7.99994H15.9997C15.4475 7.9998 14.9997 7.55214 14.9997 6.99994C14.9997 6.44777 15.4476 6.00008 15.9997 5.99994H16.0095Z" fill="currentColor"/>
<path fill-rule="evenodd" clip-rule="evenodd" d="M14.3903 2.25482C15.3985 1.9121 16.4902 1.90097 17.5056 2.22162C18.5211 2.54246 19.4084 3.17919 20.0368 4.039C20.5067 4.68203 20.8143 5.42495 20.9382 6.20404L22.2419 6.53022C22.687 6.6415 22.9997 7.0411 22.9997 7.49994C22.9997 7.95881 22.6871 8.35838 22.2419 8.46967L20.9997 8.78022V9.99994C20.9997 12.3868 20.0518 14.6764 18.364 16.3642C17.4058 17.3224 16.2535 18.0411 14.9997 18.4843V20.9999C14.9997 21.5522 14.552 21.9999 13.9997 21.9999C13.4475 21.9998 12.9997 21.5521 12.9997 20.9999V18.9413C12.6692 18.9783 12.3355 18.9999 11.9997 18.9999H10.9997V20.9999C10.9997 21.5522 10.552 21.9999 9.99971 21.9999C9.44754 21.9998 8.99971 21.5521 8.99971 20.9999V18.9999H3.92158L2.81904 20.5732C2.50213 21.0255 1.8778 21.1352 1.42549 20.8183C0.973818 20.5012 0.863651 19.8778 1.18037 19.4257L2.56025 17.455C2.57084 17.4387 2.58197 17.4228 2.59346 17.4072L11.9011 4.12592C12.5106 3.2534 13.3826 2.59745 14.3903 2.25482ZM16.903 4.12885C16.2938 3.93653 15.6387 3.94275 15.0339 4.14838C14.4289 4.35409 13.9055 4.74844 13.5397 5.2724L13.5388 5.27338L12.1481 7.25775C12.907 8.08199 13.4603 9.07978 13.7556 10.1699C14.1316 11.5583 14.0712 13.0291 13.5817 14.3818C13.2224 15.3745 12.6445 16.268 11.8972 16.9999H11.9997L12.3464 16.9912C14.0767 16.9054 15.7191 16.18 16.9499 14.9492C18.2624 13.6365 18.9997 11.8562 18.9997 9.99994V6.99701C19.0013 6.35806 18.7986 5.73458 18.4216 5.21869C18.0446 4.70308 17.5121 4.32128 16.903 4.12885ZM5.32295 16.9999H6.99971C8.0272 16.9999 9.02965 16.6828 9.8708 16.0927C10.712 15.5025 11.3512 14.6674 11.7009 13.7011C12.0505 12.7349 12.0945 11.6841 11.8259 10.6923C11.6538 10.0572 11.3578 9.46692 10.9606 8.95111L5.32295 16.9999Z" fill="currentColor"/>
</svg>
