<svg width="24" height="24" viewBox="0 0 24 24" fill="currentColor" xmlns="http://www.w3.org/2000/svg">
<path fill-rule="evenodd" clip-rule="evenodd" d="M12.0002 8.00004C13.061 8.00005 14.0782 8.42178 14.8283 9.17191C15.5784 9.92205 16.0002 10.9392 16.0002 12C16.0002 13.0609 15.5784 14.078 14.8283 14.8282C14.0782 15.5783 13.061 16 12.0002 16C10.9393 16 9.92219 15.5783 9.17205 14.8282C8.42192 14.078 8.00019 13.0609 8.00018 12C8.00018 10.9392 8.42191 9.92206 9.17205 9.17191C9.9222 8.42177 10.9393 8.00004 12.0002 8.00004ZM12.0002 10C11.4698 10 10.9612 10.2109 10.5861 10.586C10.211 10.961 10.0002 11.4696 10.0002 12C10.0002 12.5305 10.2111 13.039 10.5861 13.4141C10.9612 13.7891 11.4698 14 12.0002 14C12.5306 14 13.0392 13.7892 13.4142 13.4141C13.7893 13.039 14.0002 12.5305 14.0002 12C14.0002 11.4696 13.7893 10.961 13.4142 10.586C13.0392 10.2109 12.5306 10.0001 12.0002 10Z" fill="currentColor"/>
<path fill-rule="evenodd" clip-rule="evenodd" d="M9.42596 3.82914C10.2702 1.3091 13.9943 1.39311 14.6467 4.08109C14.6735 4.19186 14.7269 4.29528 14.801 4.38187C14.875 4.46834 14.9682 4.53653 15.0734 4.58012C15.1786 4.62369 15.2929 4.64162 15.4064 4.63285C15.5201 4.62403 15.6304 4.58866 15.7277 4.52933L15.9572 4.40238C18.3363 3.21768 20.9105 5.91048 19.4719 8.27348C19.4128 8.37063 19.3771 8.48041 19.3683 8.59379C19.3596 8.70734 19.3785 8.82156 19.4221 8.9268C19.4656 9.03184 19.533 9.12523 19.6193 9.19926C19.7057 9.27328 19.8086 9.32662 19.9191 9.35355L20.1711 9.42582C22.691 10.2701 22.607 13.9942 19.9191 14.6465C19.8083 14.6734 19.7049 14.7267 19.6183 14.8008C19.5319 14.8749 19.4637 14.9681 19.4201 15.0733C19.3765 15.1785 19.3586 15.2927 19.3674 15.4063C19.374 15.4915 19.3954 15.5751 19.4308 15.6524L19.4709 15.7276C20.9562 18.1658 18.1659 20.9566 15.7267 19.4717C15.6296 19.4126 15.5198 19.377 15.4064 19.3682C15.2929 19.3594 15.1787 19.3783 15.0734 19.4219C14.9684 19.4654 14.875 19.5329 14.801 19.6192C14.7454 19.684 14.7017 19.7583 14.6721 19.8379L14.6467 19.919C13.9733 22.6936 10.0271 22.6936 9.35369 19.919C9.32686 19.8082 9.27349 19.7048 9.1994 19.6182C9.12534 19.5317 9.03211 19.4636 8.92694 19.42C8.82172 19.3764 8.70748 19.3585 8.59393 19.3672C8.50869 19.3738 8.42516 19.3953 8.34784 19.4307L8.27264 19.4707C5.83442 20.9561 3.04352 18.1658 4.5285 15.7266L4.56854 15.6514C4.60379 15.5743 4.62541 15.4913 4.63202 15.4063C4.6408 15.2927 4.62187 15.1785 4.5783 15.0733C4.53479 14.9682 4.46733 14.8749 4.38104 14.8008C4.3162 14.7453 4.24188 14.7015 4.16229 14.6719L4.08123 14.6465C1.30658 13.9732 1.30658 10.0269 4.08123 9.35355C4.192 9.32671 4.29543 9.27336 4.38202 9.19926C4.4685 9.12519 4.53666 9.03199 4.58026 8.9268C4.62385 8.82157 4.64175 8.70735 4.63299 8.59379C4.62638 8.50855 4.60495 8.42501 4.56952 8.34769L4.52948 8.2725C3.04438 5.83472 5.83283 3.04424 8.27166 4.52738C8.69358 4.78385 9.23749 4.55812 9.35369 4.08109L9.42596 3.82914ZM12.7033 4.55277C12.5245 3.81581 11.4759 3.81581 11.2971 4.55277C10.8746 6.28917 8.93808 7.14181 7.38299 6.32133L7.23358 6.23637C6.58476 5.84136 5.84297 6.58372 6.23748 7.23148C6.46065 7.59753 6.59393 8.0111 6.62713 8.43851C6.66028 8.86609 6.59206 9.29622 6.42791 9.69242C6.26382 10.0884 6.00839 10.44 5.6828 10.7188C5.3976 10.9629 5.06512 11.1456 4.70721 11.2549L4.55291 11.2969C3.81595 11.4757 3.81595 12.5243 4.55291 12.7032C4.96908 12.8044 5.35652 13.0027 5.68182 13.2813C6.0072 13.5601 6.26298 13.9118 6.42694 14.3077C6.59088 14.7036 6.65923 15.1333 6.62616 15.5606C6.59306 15.9878 6.45943 16.4016 6.23651 16.7676C5.84196 17.4164 6.58398 18.1572 7.23162 17.7627C7.59761 17.5396 8.01132 17.4063 8.43866 17.3731C8.86623 17.3399 9.29637 17.4082 9.69256 17.5723C10.0885 17.7364 10.4402 17.9918 10.7189 18.3174C10.9977 18.6432 11.196 19.0306 11.2971 19.4473L11.34 19.5772C11.6034 20.1815 12.5357 20.1381 12.7033 19.4473C12.8046 19.0311 13.0028 18.6437 13.2814 18.3184C13.5602 17.993 13.9119 17.7372 14.3078 17.5733C14.7038 17.4093 15.1334 17.341 15.5607 17.3741C15.988 17.4072 16.4018 17.5408 16.7678 17.7637C17.4165 18.1582 18.1572 17.4162 17.7629 16.7686C17.54 16.4028 17.4064 15.9886 17.3732 15.5616C17.3401 15.134 17.4083 14.7039 17.5724 14.3077C17.7365 13.9117 17.992 13.5601 18.3176 13.2813C18.6433 13.0025 19.0307 12.8042 19.4474 12.7032L19.5773 12.6602C20.1816 12.3969 20.1382 11.4646 19.4474 11.2969C19.0313 11.1957 18.6438 10.9974 18.3185 10.7188C17.9931 10.44 17.7374 10.0883 17.5734 9.69242C17.4095 9.29646 17.3411 8.86678 17.3742 8.43949C17.4073 8.01223 17.5409 7.59845 17.7639 7.23246C18.1584 6.58373 17.4164 5.84294 16.7687 6.23734L16.7678 6.23637C16.4018 6.45935 15.9889 6.59379 15.5617 6.62699C15.1341 6.66014 14.704 6.5919 14.3078 6.42777C13.9118 6.26369 13.5602 6.00823 13.2814 5.68265C13.0373 5.39746 12.8547 5.06497 12.7453 4.70707L12.7033 4.55277Z" fill="currentColor"/>
</svg>
