<svg width="24" height="24" viewBox="0 0 24 24" fill="currentColor" xmlns="http://www.w3.org/2000/svg">
<path d="M17 9C17 8.73478 16.8946 8.48051 16.707 8.29297C16.5429 8.12883 16.3276 8.02757 16.0986 8.00488L16 8H6C5.73478 8 5.4805 8.10543 5.29297 8.29297C5.10543 8.4805 5 8.73478 5 9V15L5.00488 15.0986C5.02757 15.3276 5.12883 15.5429 5.29297 15.707C5.48051 15.8946 5.73478 16 6 16H16C16.2652 16 16.5195 15.8946 16.707 15.707C16.8946 15.5195 17 15.2652 17 15V9ZM20 13.5V10.5C20 9.94772 20.4477 9.5 21 9.5C21.5523 9.5 22 9.94772 22 10.5V13.5C22 14.0523 21.5523 14.5 21 14.5C20.4477 14.5 20 14.0523 20 13.5ZM19 15C19 15.7957 18.6837 16.5585 18.1211 17.1211C17.5585 17.6837 16.7957 18 16 18H6C5.20435 18 4.44151 17.6837 3.87891 17.1211C3.3163 16.5585 3 15.7956 3 15V9C3 8.20435 3.3163 7.44152 3.87891 6.87891C4.44152 6.3163 5.20435 6 6 6H16C16.7956 6 17.5585 6.3163 18.1211 6.87891C18.6837 7.44151 19 8.20435 19 9V15Z" fill="currentColor"/>
</svg>
