<svg width="24" height="24" viewBox="0 0 24 24" fill="currentColor" xmlns="http://www.w3.org/2000/svg">
<path d="M18.8339 21.5585C19.3861 21.5586 19.8339 22.0063 19.8339 22.5585C19.8339 23.1108 19.3861 23.5585 18.8339 23.5585H4.83389C4.28161 23.5585 3.83391 23.1108 3.83389 22.5585C3.83389 22.0063 4.2816 21.5585 4.83389 21.5585H18.8339Z" fill="currentColor"/>
<path fill-rule="evenodd" clip-rule="evenodd" d="M11.8339 6.55854C14.5953 6.55859 16.8339 8.79715 16.8339 11.5585C16.8339 14.3199 14.5953 16.5585 11.8339 16.5585C9.07248 16.5585 6.83391 14.3199 6.83389 11.5585C6.83389 8.79712 9.07246 6.55854 11.8339 6.55854ZM11.8339 8.55854C10.177 8.55854 8.83389 9.90169 8.83389 11.5585C8.83391 13.2154 10.177 14.5585 11.8339 14.5585C13.4907 14.5585 14.8339 13.2153 14.8339 11.5585C14.8339 9.90172 13.4907 8.55859 11.8339 8.55854Z" fill="currentColor"/>
<path fill-rule="evenodd" clip-rule="evenodd" d="M10.6874 1.36128C11.3759 0.879582 12.2919 0.879568 12.9804 1.36128L20.8153 6.84565C21.4389 7.28243 21.7602 8.03553 21.6444 8.78803L20.0946 18.8623C19.9539 19.7767 19.2076 20.4668 18.3017 20.5498L18.1181 20.5585H5.54971L5.36611 20.5498C4.52073 20.4724 3.8143 19.8667 3.60928 19.0429L3.57314 18.8623L2.02334 8.78803C1.91478 8.0824 2.19021 7.37597 2.73916 6.93061L2.85244 6.84565L10.6874 1.36128ZM3.9999 8.48335L5.54971 18.5585H18.1181L19.6679 8.48335L11.8339 2.99995L3.9999 8.48335Z" fill="currentColor"/>
</svg>
