<svg width="24" height="24" viewBox="0 0 24 24" fill="currentColor" xmlns="http://www.w3.org/2000/svg">
<path d="M8.99971 1.0004C9.27007 1.0004 9.53338 1.08785 9.74971 1.25001C9.96608 1.41228 10.124 1.64075 10.1997 1.9004L10.2032 1.90977L14.9997 18.9781L16.6274 13.1891C16.8045 12.5583 17.183 12.0023 17.7056 11.607C18.2277 11.2121 18.865 10.9992 19.5196 11H22.0005C22.5525 11.0002 22.9999 11.4476 23.0001 11.9996C23.0001 12.5518 22.5526 13.0002 22.0005 13.0004H19.5185C19.3001 12.9999 19.0868 13.0703 18.9126 13.202C18.7819 13.3008 18.6777 13.43 18.6091 13.577L18.5528 13.7305L16.2032 22.0906L16.1997 22.1C16.124 22.3596 15.9661 22.5881 15.7497 22.7504C15.5334 22.9125 15.27 23 14.9997 23C14.7294 22.9999 14.466 22.9126 14.2497 22.7504C14.0334 22.5881 13.8754 22.3596 13.7997 22.1L13.7974 22.0906L8.99971 5.0211L7.37314 10.8102C7.19683 11.4389 6.81945 11.9923 6.29971 12.3875C5.77995 12.7827 5.14561 12.9985 4.49268 13.0004H2.0001C1.44781 13.0004 1.00049 12.5519 1.00049 11.9996C1.0007 11.4475 1.44794 11 2.0001 11H4.48682C4.70433 10.9994 4.91597 10.9277 5.08916 10.7961C5.26242 10.6644 5.38899 10.4795 5.44775 10.2699L7.79736 1.90977L7.79971 1.9004C7.87541 1.64085 8.03347 1.41227 8.24971 1.25001C8.46597 1.08781 8.72938 1.00048 8.99971 1.0004Z" fill="currentColor"/>
</svg>
