<svg width="24" height="24" viewBox="0 0 24 24" fill="currentColor" xmlns="http://www.w3.org/2000/svg">
<path d="M12.0109 18.999C12.5626 18.9996 13.0097 19.4478 13.01 19.9995C13.01 20.5515 12.5628 20.9995 12.0109 21H12.0007C11.4484 21 11.0002 20.5518 11.0002 19.9995C11.0004 19.4474 11.4485 18.999 12.0007 18.999H12.0109Z" fill="#151515"/>
<path d="M11.9992 13.9995C13.5697 13.9995 15.0788 14.6155 16.2004 15.7148C16.5946 16.1015 16.6001 16.7355 16.2136 17.1299C15.8269 17.5236 15.1942 17.5294 14.8 17.1431C14.0523 16.4102 13.0462 16.0005 11.9992 16.0005C10.9526 16.0007 9.9474 16.4105 9.19989 17.1431C8.80547 17.5294 8.17137 17.5242 7.78485 17.1299C7.39839 16.7356 7.40538 16.1015 7.7995 15.7148C8.92089 14.6157 10.429 13.9997 11.9992 13.9995Z" fill="currentColor"/>
<path d="M12.0007 9C14.8796 9.00019 17.6439 10.1298 19.6999 12.145C20.094 12.5315 20.1007 13.1642 19.7145 13.5586C19.328 13.953 18.6939 13.9597 18.2995 13.5732C16.6173 11.9246 14.356 11.0012 12.0007 11.001C9.64498 11.001 7.38272 11.9243 5.70038 13.5732C5.30602 13.9598 4.67195 13.9529 4.28534 13.5586C3.89937 13.1642 3.90592 12.5314 4.29999 12.145C6.3562 10.1296 9.12143 9 12.0007 9Z" fill="currentColor"/>
<path d="M12.0007 4.00049C15.936 4.00066 19.7329 5.45217 22.6662 8.07568C23.0774 8.44393 23.1134 9.07629 22.7453 9.48779C22.3772 9.8987 21.7446 9.93301 21.3332 9.56543C18.7667 7.27006 15.4439 6.00164 12.0007 6.00146C8.55707 6.00146 5.23343 7.26975 2.66669 9.56543C2.25524 9.93325 1.62279 9.8988 1.25458 9.48779C0.88648 9.07624 0.922317 8.44391 1.33368 8.07568C4.26713 5.45192 8.06503 4.00049 12.0007 4.00049Z" fill="currentColor"/>
</svg>
