<svg width="24" height="24" viewBox="0 0 24 24" fill="currentColor" xmlns="http://www.w3.org/2000/svg">
<path d="M3.01025 18C3.56242 18.0001 4.00928 18.4483 4.00928 19.0005C4.00901 19.5525 3.56225 20.0008 3.01025 20.001H3C2.44788 20.001 1.99978 19.5525 1.99951 19.0005C1.99951 18.4482 2.44772 18 3 18H3.01025Z" fill="currentColor"/>
<path d="M21 18C21.5521 18.0003 21.999 18.4484 21.999 19.0005C21.9988 19.5524 21.5519 20.0007 21 20.001H7.99951C7.44762 20.0007 6.9993 19.5524 6.99902 19.0005C6.99902 18.4484 7.44745 18.0003 7.99951 18H21Z" fill="currentColor"/>
<path d="M3.01025 10.9995C3.56242 10.9996 4.00928 11.4478 4.00928 12C4.00928 12.5522 3.56242 13.0004 3.01025 13.0005H3C2.44772 13.0005 1.99951 12.5523 1.99951 12C1.99951 11.4477 2.44772 10.9995 3 10.9995H3.01025Z" fill="currentColor"/>
<path d="M21 10.9995C21.5521 10.9998 21.999 11.4479 21.999 12C21.999 12.5521 21.5521 13.0002 21 13.0005H7.99951C7.44745 13.0002 6.99902 12.5521 6.99902 12C6.99902 11.4479 7.44745 10.9998 7.99951 10.9995H21Z" fill="currentColor"/>
<path d="M3.01025 3.99902C3.56225 3.99916 4.00901 4.44754 4.00928 4.99951C4.00928 5.55171 3.56242 5.99986 3.01025 6H3C2.44772 6 1.99951 5.5518 1.99951 4.99951C1.99978 4.44746 2.44788 3.99902 3 3.99902H3.01025Z" fill="currentColor"/>
<path d="M21 3.99902C21.5519 3.99929 21.9988 4.44762 21.999 4.99951C21.999 5.55163 21.5521 5.99974 21 6H7.99951C7.44745 5.99974 6.99902 5.55164 6.99902 4.99951C6.9993 4.44762 7.44762 3.99928 7.99951 3.99902H21Z" fill="currentColor"/>
</svg>
