<svg width="56" height="56" viewBox="0 0 56 56" fill="none" xmlns="http://www.w3.org/2000/svg">
<g filter="url(#filter0_d_1194_4247)">
<rect x="8" y="4" width="40" height="40" rx="20" fill="#00A63E"/>
<rect x="9" y="5" width="38" height="38" rx="19" stroke="#FAFAFA" stroke-width="2"/>
<path d="M32.01 18C32.5622 18 33.0099 18.4477 33.01 19C33.01 19.5522 32.5622 20 32.01 20H32.0002C31.448 19.9998 31.0002 19.5522 31.0002 19C31.0002 18.4478 31.448 18.0001 32.0002 18H32.01Z" fill="#FAFAFA"/>
<path fill-rule="evenodd" clip-rule="evenodd" d="M30.3908 14.2548C31.399 13.9121 32.4906 13.901 33.5061 14.2216C34.5216 14.5425 35.4089 15.1792 36.0373 16.039C36.5072 16.682 36.8148 17.425 36.9387 18.2041L38.2424 18.5302C38.6875 18.6415 39.0002 19.0411 39.0002 19.5C39.0002 19.9588 38.6875 20.3584 38.2424 20.4697L37.0002 20.7802V22C37.0001 24.3868 36.0522 26.6764 34.3645 28.3642C33.4063 29.3224 32.254 30.0411 31.0002 30.4843V33C31.0002 33.5522 30.5525 34 30.0002 34C29.448 33.9998 29.0002 33.5522 29.0002 33V30.9414C28.6697 30.9783 28.336 31 28.0002 31H27.0002V33C27.0002 33.5522 26.5525 34 26.0002 34C25.448 33.9998 25.0002 33.5522 25.0002 33V31H19.9221L18.8195 32.5732C18.5026 33.0255 17.8783 33.1352 17.426 32.8183C16.9743 32.5012 16.8641 31.8778 17.1809 31.4257L18.5607 29.455C18.5713 29.4388 18.5825 29.4228 18.5939 29.4072L27.9016 16.1259C28.5111 15.2534 29.3831 14.5975 30.3908 14.2548ZM32.9035 16.1289C32.2943 15.9365 31.6392 15.9428 31.0344 16.1484C30.4294 16.3541 29.906 16.7485 29.5402 17.2724L29.5393 17.2734L28.1486 19.2578C28.9075 20.082 29.4607 21.0798 29.7561 22.1699C30.1321 23.5583 30.0717 25.0291 29.5822 26.3818C29.2229 27.3745 28.645 28.268 27.8977 29H28.0002L28.3469 28.9912C30.0772 28.9054 31.7196 28.18 32.9504 26.9492C34.2629 25.6365 35.0001 23.8562 35.0002 22V18.997C35.0018 18.3581 34.7991 17.7346 34.4221 17.2187C34.045 16.7031 33.5126 16.3213 32.9035 16.1289ZM21.3234 29H23.0002C24.0277 28.9999 25.0301 28.6828 25.8713 28.0927C26.7125 27.5025 27.3517 26.6674 27.7014 25.7011C28.051 24.735 28.095 23.6841 27.8264 22.6923C27.6543 22.0572 27.3583 21.4669 26.9611 20.9511L21.3234 29Z" fill="#FAFAFA"/>
</g>
<defs>
<filter id="filter0_d_1194_4247" x="0" y="0" width="56" height="56" filterUnits="userSpaceOnUse" color-interpolation-filters="sRGB">
<feFlood flood-opacity="0" result="BackgroundImageFix"/>
<feColorMatrix in="SourceAlpha" type="matrix" values="0 0 0 0 0 0 0 0 0 0 0 0 0 0 0 0 0 0 127 0" result="hardAlpha"/>
<feOffset dy="4"/>
<feGaussianBlur stdDeviation="4"/>
<feComposite in2="hardAlpha" operator="out"/>
<feColorMatrix type="matrix" values="0 0 0 0 0 0 0 0 0 0 0 0 0 0 0 0 0 0 0.12 0"/>
<feBlend mode="normal" in2="BackgroundImageFix" result="effect1_dropShadow_1194_4247"/>
<feBlend mode="normal" in="SourceGraphic" in2="effect1_dropShadow_1194_4247" result="shape"/>
</filter>
</defs>
</svg>
