<svg width="24" height="24" viewBox="0 0 24 24" fill="currentColor" xmlns="http://www.w3.org/2000/svg">
<path d="M9 1.99951C9.55228 1.99951 10.0005 2.44772 10.0005 3C10.0005 3.55228 9.55228 4.00049 9 4.00049H4.99951C4.73447 4.00062 4.48088 4.10604 4.29346 4.29346C4.10604 4.48088 4.00062 4.73447 4.00049 4.99951V19.0005C4.00062 19.2655 4.10604 19.5191 4.29346 19.7065C4.48088 19.894 4.73447 19.9994 4.99951 19.9995H9C9.55228 19.9995 10.0005 20.4477 10.0005 21C10.0005 21.5523 9.55228 22.0005 9 22.0005H4.99951C4.20404 22.0004 3.44091 21.6841 2.87842 21.1216C2.31592 20.5591 1.99964 19.796 1.99951 19.0005V4.99951C1.99964 4.20404 2.31592 3.44091 2.87842 2.87842C3.44091 2.31592 4.20404 1.99964 4.99951 1.99951H9Z" fill="currentColor"/>
<path d="M15.293 6.29297C15.6835 5.90244 16.3175 5.90244 16.708 6.29297L21.7075 11.2925C21.799 11.384 21.8722 11.4935 21.9229 11.6147C21.9351 11.6441 21.9413 11.6754 21.9507 11.7056C21.9797 11.7991 22.0005 11.8969 22.0005 12C22.0005 12.0993 21.9806 12.1936 21.9536 12.2842C21.9437 12.3175 21.9363 12.3515 21.9229 12.3838C21.9102 12.4142 21.8915 12.4414 21.876 12.4702C21.861 12.498 21.8483 12.5271 21.8306 12.5537C21.7939 12.6086 21.754 12.661 21.7075 12.7075L16.708 17.707C16.3176 18.0974 15.6835 18.0971 15.293 17.707C14.903 17.3166 14.9029 16.6838 15.293 16.2935L18.5859 13.0005H9C8.44772 13.0005 7.99951 12.5523 7.99951 12C7.99951 11.4477 8.44772 10.9995 9 10.9995H18.5859L15.293 7.70801C14.9025 7.31749 14.9025 6.6835 15.293 6.29297Z" fill="currentColor"/>
</svg>
