<svg width="24" height="24" viewBox="0 0 24 24" fill="currentColor" xmlns="http://www.w3.org/2000/svg">
<path d="M12.0003 14.9048C12.2794 14.9048 12.5471 15.016 12.7445 15.2134C12.9419 15.4108 13.0531 15.6792 13.0531 15.9585C13.0529 16.2376 12.9418 16.5052 12.7445 16.7026C12.5471 16.9 12.2795 17.0111 12.0003 17.0112C11.7211 17.0112 11.4527 16.9001 11.2552 16.7026C11.0579 16.5053 10.9467 16.2375 10.9466 15.9585C10.9466 15.6792 11.0578 15.4108 11.2552 15.2134C11.4527 15.0159 11.7211 14.9048 12.0003 14.9048Z" fill="currentColor"/>
<path d="M12.0003 6.80027C12.2654 6.80036 12.5199 6.90578 12.7074 7.09324C12.8947 7.28074 13.0003 7.5352 13.0003 7.80027V12.8003C13.0003 13.0654 12.8948 13.3198 12.7074 13.5073C12.5199 13.6948 12.2654 13.8002 12.0003 13.8003C11.7353 13.8003 11.4808 13.6946 11.2933 13.5073C11.1058 13.3198 11.0004 13.0654 11.0003 12.8003V7.80027C11.0003 7.53505 11.1058 7.28077 11.2933 7.09324C11.4808 6.90573 11.7351 6.80027 12.0003 6.80027Z" fill="currentColor"/>
<path fill-rule="evenodd" clip-rule="evenodd" d="M8.39291 4.64109C9.95891 1.78609 14.0408 1.78611 15.6068 4.64109L21.4828 15.3618C22.9947 18.1207 21.0101 21.5002 17.8763 21.5005H6.12435C2.99035 21.5005 1.00393 18.1198 2.51693 15.3608L8.39291 4.64109ZM13.8031 5.64207C13.0211 4.21307 10.9786 4.21307 10.1966 5.64207L4.31967 16.3598C3.56267 17.7398 4.55638 19.4292 6.12338 19.4292H17.8753C19.4421 19.4289 20.435 17.7388 19.6781 16.3589L13.8031 5.64207Z" fill="currentColor"/>
</svg>
