<svg width="24" height="24" viewBox="0 0 24 24" fill="currentColor" xmlns="http://www.w3.org/2000/svg">
<path d="M19.001 1.99902C19.7963 1.99928 20.5597 2.31653 21.1221 2.87891C21.6843 3.44135 22.0008 4.20476 22.001 5V19.001C22.0007 19.7963 21.6844 20.5597 21.1221 21.1221C20.5597 21.6844 19.7963 22.0007 19.001 22.001H15C14.4477 22.001 14 21.5523 14 21C14 20.4477 14.4477 20 15 20H19.001C19.2658 19.9997 19.5197 19.8943 19.707 19.707C19.8943 19.5197 19.9997 19.2658 20 19.001V5C19.9999 4.73519 19.8941 4.48132 19.707 4.29395C19.5197 4.10664 19.2658 4.00124 19.001 4.00098H15C14.4477 4.00098 14 3.55228 14 3C14 2.44772 14.4477 1.99902 15 1.99902H19.001Z" fill="currentColor"/>
<path d="M9.29297 6.29297C9.68349 5.90244 10.3175 5.90244 10.708 6.29297L15.6953 11.2822C15.883 11.4641 16.001 11.7181 16.001 12C16.001 12.09 15.9871 12.1768 15.9648 12.2598C15.962 12.2702 15.9592 12.2806 15.9561 12.291C15.9077 12.4501 15.8217 12.5924 15.707 12.707L10.708 17.707C10.3176 18.0974 9.68352 18.0971 9.29297 17.707C8.90301 17.3165 8.90285 16.6833 9.29297 16.293L12.585 13.001H3C2.44772 13.001 1.99902 12.5523 1.99902 12C1.99902 11.4477 2.44772 11 3 11H12.5859L9.29297 7.70801C8.90245 7.31749 8.90247 6.6835 9.29297 6.29297Z" fill="currentColor"/>
</svg>
