<svg width="24" height="24" viewBox="0 0 24 24" fill="currentColor" xmlns="http://www.w3.org/2000/svg">
<path fill-rule="evenodd" clip-rule="evenodd" d="M12 6C14.209 6 15.9994 7.79065 15.9996 9.99961C15.9996 12.2087 14.2091 13.9992 12 13.9992C9.79086 13.9992 8.00039 12.2087 8.00039 9.99961C8.0006 7.79065 9.79099 6 12 6ZM12 7.99922C10.8956 7.99922 9.99982 8.89522 9.99961 9.99961C9.99961 11.1042 10.8954 12 12 12C13.1046 12 14.0004 11.1042 14.0004 9.99961C14.0002 8.89522 13.1044 7.99922 12 7.99922Z" fill="currentColor"/>
<path fill-rule="evenodd" clip-rule="evenodd" d="M12 1.00078C14.3867 1.00089 16.6756 1.94872 18.3633 3.63633C20.0511 5.32416 21 7.61383 21 10.0008C20.9997 12.8342 19.447 15.6039 17.7938 17.7762C16.1172 19.9788 14.209 21.7316 13.2539 22.5562C13.237 22.5708 13.219 22.5851 13.2012 22.5984C12.8548 22.8587 12.4332 23.0003 12 23.0004C11.5665 23.0003 11.1441 22.8589 10.7977 22.5984C10.7797 22.5849 10.7619 22.5709 10.7449 22.5562C9.78977 21.7315 7.88267 19.9787 6.20625 17.7762C4.55296 15.6039 3.00028 12.8342 3 10.0008C3 7.61402 3.94797 5.32412 5.63555 3.63633C7.32328 1.9486 9.6132 1.00089 12 1.00078ZM12 3C10.1436 3.00011 8.36266 3.73812 7.05 5.05078C5.73749 6.3635 4.99922 8.14445 4.99922 10.0008C4.99951 12.1599 6.21678 14.4874 7.79766 16.5645C9.32516 18.5714 11.0782 20.1963 11.9988 20.9953C12.9192 20.1966 14.6744 18.5719 16.2023 16.5645C17.7832 14.4874 18.9993 12.1598 18.9996 10.0008C18.9996 8.14427 18.2616 6.36354 16.9488 5.05078C15.6362 3.73825 13.8563 3.0001 12 3Z" fill="currentColor"/>
</svg>
