<svg width="64" height="64" viewBox="0 0 64 64" fill="none" xmlns="http://www.w3.org/2000/svg">
<path d="M51.1176 56.0811C51.9297 56.0811 52.588 56.7346 52.5881 57.5405C52.5881 58.3466 51.9297 59 51.1176 59H12.8827C12.0707 58.9998 11.4121 58.3464 11.4121 57.5405C11.4122 56.7347 12.0708 56.0813 12.8827 56.0811H51.1176Z" fill="#4E801F"/>
<path d="M34.9413 31.2703C35.7534 31.2703 36.4117 31.9238 36.4118 32.7298C36.4118 33.5358 35.7534 34.1892 34.9413 34.1892C34.1293 34.189 33.4707 33.5357 33.4707 32.7298C33.4708 31.924 34.1293 31.2705 34.9413 31.2703Z" fill="#4E801F"/>
<path fill-rule="evenodd" clip-rule="evenodd" d="M31.3625 5.14403C31.832 4.91971 32.3942 4.95754 32.8331 5.25662L56.3622 21.3107C57.0314 21.7672 57.2013 22.676 56.7414 23.3402C56.2813 24.0042 55.3656 24.1729 54.6963 23.7165L32.0001 8.2297L10.055 23.202L13.7932 49.1729L14.6003 47.9743C17.4925 43.4536 22.6807 36.4584 25.9211 31.8903C27.3639 29.8562 28.6544 28.1486 29.4898 27.3195C31.8395 24.9876 35.0643 24.8755 37.5492 25.7546C38.8009 26.1975 39.9521 26.9159 40.8092 27.8298C41.4701 28.5348 41.9964 29.4066 42.2008 30.3881L45.2568 32.2081C45.7007 32.4726 45.9718 32.95 45.9706 33.4638C45.969 33.9775 45.6949 34.453 45.2496 34.7151L42.2151 36.501C42.0747 39.4774 41.665 42.0618 40.3281 44.2871C38.9702 46.5473 36.777 48.2523 33.4707 49.7387V53.1622C33.4707 53.9682 32.8123 54.6216 32.0001 54.6216H12.8827C12.1511 54.6214 11.53 54.0876 11.4265 53.3688L7.01475 22.7202C6.93585 22.1715 7.17783 21.6248 7.63802 21.3107L31.1672 5.25662L31.3625 5.14403ZM15.6299 51.7027H24.6473V50.2433H16.6108L15.6299 51.7027ZM27.5884 51.7027H30.5295V50.2433H27.5884V51.7027ZM36.5612 28.5039C34.8185 27.8875 32.8957 28.0669 31.5693 29.3833C31.0419 29.9067 30.1434 31.0536 28.9886 32.6485C30.9335 35.019 31.9586 37.2953 32.0992 39.4541C32.2607 41.9339 31.2416 44.016 29.6076 45.624C28.9638 46.2575 28.2182 46.8233 27.3988 47.3243H31.6985C35.0462 45.9041 36.802 44.4565 37.802 42.792C38.8499 41.0476 39.2085 38.8459 39.3113 35.6031C39.3526 34.302 39.353 32.8734 39.353 31.2703C39.3529 30.863 39.1572 30.3536 38.655 29.818C38.1565 29.2865 37.423 28.8088 36.5612 28.5039ZM27.2064 35.1285C24.5557 38.825 21.2004 43.4221 18.6716 47.1433C22.2851 46.6956 25.6362 45.4217 27.5367 43.5517C28.6834 42.4233 29.2607 41.1301 29.1638 39.6422C29.0839 38.4168 28.5353 36.911 27.2064 35.1285Z" fill="#4E801F"/>
<path d="M52.3526 23.8861L46.9959 31.9188C46.7534 31.532 46.4204 31.1991 46.0136 30.9568L43.466 29.4403C43.1303 28.4208 42.5452 27.5391 41.8848 26.8349C40.8485 25.7299 39.4897 24.8911 38.0433 24.3792C35.1873 23.3689 31.3113 23.4481 28.4501 26.2876C27.5091 27.2216 26.1468 29.0367 24.7191 31.0494C21.9605 34.9382 17.6944 40.7177 14.6994 45.1594L11.6419 23.8875L32.0001 9.99986L52.3526 23.8861Z" fill="#4E801F"/>
</svg>
