<svg width="24" height="24" viewBox="0 0 24 24" fill="currentColor" xmlns="http://www.w3.org/2000/svg">
<path d="M21.9997 6C22.0661 5.99999 22.1325 6.00681 22.1978 6.01992C22.2152 6.02342 22.2322 6.02842 22.2493 6.03281C22.2618 6.03601 22.2745 6.0385 22.2868 6.04219C22.3688 6.06667 22.4461 6.10185 22.5177 6.14531C22.5307 6.15321 22.5436 6.16137 22.5564 6.16992C22.6659 6.24342 22.7599 6.33779 22.8329 6.44766C22.8624 6.49202 22.8874 6.5384 22.9091 6.58594C22.9137 6.59611 22.9189 6.60606 22.9232 6.61641C22.9287 6.62978 22.9323 6.64386 22.9372 6.65742C22.9763 6.76435 22.9993 6.87912 22.9993 6.99961V12.9996C22.9993 13.5519 22.552 13.9992 21.9997 13.9992C21.4476 13.999 21.0001 13.5518 21.0001 12.9996V9.41367L14.2079 16.207C13.8175 16.5975 13.184 16.5973 12.7935 16.207L8.49973 11.9133L2.70715 17.707C2.31674 18.097 1.6843 18.097 1.29387 17.707C0.903346 17.3165 0.903346 16.6831 1.29387 16.2926L7.79309 9.79219C8.18358 9.40218 8.81715 9.40201 9.20754 9.79219L13.5001 14.0848L19.5868 7.99922H15.9997C15.4476 7.99904 15.0001 7.55179 15.0001 6.99961C15.0003 6.44763 15.4477 6.00017 15.9997 6H21.9997Z" fill="currentColor"/>
</svg>
