<svg width="24" height="24" viewBox="0 0 24 24" fill="currentColor" xmlns="http://www.w3.org/2000/svg">
<path d="M21 4.81895C21 4.5801 20.9527 4.34335 20.8613 4.12267C20.77 3.90199 20.6357 3.70173 20.4668 3.53282C20.2979 3.36393 20.0976 3.22971 19.877 3.13829C19.6565 3.04696 19.4203 2.99971 19.1817 2.99962C18.9428 2.99959 18.706 3.04694 18.4854 3.13829C18.2649 3.22959 18.0643 3.36318 17.8955 3.53185L4.54787 16.8824C4.43189 16.9981 4.34589 17.1408 4.29787 17.2975L3.24904 20.7486L6.70607 19.7008L6.82033 19.6588C6.932 19.6093 7.0341 19.5395 7.12111 19.4527L20.4668 6.10509L20.5869 5.97227C20.7001 5.83442 20.7928 5.68057 20.8613 5.51524C20.9527 5.29465 21 5.05774 21 4.81895ZM21 19.9996C21.5521 19.9997 21.9998 20.4475 22 20.9996C22 21.5519 21.5523 21.9996 21 21.9996H13C12.4477 21.9996 12 21.5519 12 20.9996C12.0002 20.4475 12.4479 19.9996 13 19.9996H21ZM23 4.81895C23 5.32031 22.9009 5.81671 22.709 6.27989C22.541 6.68528 22.3048 7.05896 22.0108 7.38341L21.8809 7.51915L8.53322 20.8688C8.18551 21.2154 7.75781 21.472 7.2881 21.6149L2.93458 22.9352L2.93165 22.9361C2.67254 23.014 2.39717 23.0196 2.13478 22.9537C1.87233 22.8877 1.63202 22.7523 1.44044 22.5611C1.24881 22.3698 1.11236 22.1293 1.04591 21.8668C0.979599 21.6045 0.985109 21.3292 1.06251 21.0699L1.06447 21.066L2.38478 16.7135L2.38576 16.7106C2.52994 16.2404 2.78754 15.8126 3.13576 15.4654L16.4805 2.11778C16.8351 1.76322 17.2564 1.48152 17.7197 1.28966C18.1831 1.0978 18.6802 0.999556 19.1817 0.999619C19.683 0.999711 20.1794 1.09873 20.6426 1.29063C21.1059 1.48261 21.5273 1.7641 21.8818 2.11876C22.2362 2.47323 22.5172 2.894 22.709 3.35704C22.9009 3.82038 23.0001 4.31746 23 4.81895Z" fill="currentColor"/>
</svg>
