<svg width="24" height="24" viewBox="0 0 24 24" fill="currentColor" xmlns="http://www.w3.org/2000/svg">
<path d="M12.866 20.5005C13.1421 20.0224 13.753 19.8585 14.2312 20.1343C14.7094 20.4104 14.8733 21.0213 14.5975 21.4995C14.3341 21.9554 13.9548 22.3349 13.4988 22.5981C13.043 22.8611 12.5251 22.9995 11.9988 22.9995C11.4727 22.9993 10.9545 22.8612 10.4988 22.5981C10.0432 22.3349 9.6648 21.9552 9.40165 21.4995C9.12603 21.0215 9.29015 20.4105 9.76787 20.1343C10.246 19.8584 10.8569 20.0225 11.1331 20.5005C11.2207 20.6521 11.3478 20.7776 11.4993 20.8652C11.651 20.9528 11.8237 20.9998 11.9988 21C12.1742 21 12.3479 20.9528 12.4998 20.8652C12.6514 20.7776 12.7784 20.6521 12.866 20.5005Z" fill="currentColor"/>
<path fill-rule="evenodd" clip-rule="evenodd" d="M12.0003 0.999023C13.8563 0.999217 15.6375 1.73753 16.95 3.0498C18.2624 4.36241 18.9992 6.14334 18.9993 7.99951C18.9993 10.1439 19.3363 11.4784 19.7757 12.4087C20.1059 13.1076 20.5123 13.6217 20.9754 14.124L21.4573 14.6309L21.4793 14.6528C21.74 14.9394 21.9122 15.2973 21.9744 15.6797C22.0363 16.062 21.986 16.4549 21.8294 16.8091C21.6726 17.1634 21.4159 17.4649 21.0911 17.6763C20.7665 17.8875 20.3871 18 19.9998 18H3.99931C3.61209 17.9996 3.23236 17.8863 2.908 17.6748C2.58364 17.463 2.326 17.1606 2.16972 16.8062C2.0137 16.4518 1.96369 16.0589 2.02617 15.6768C2.08882 15.2943 2.26157 14.9376 2.52275 14.6514L2.54326 14.6294C3.20767 13.9435 3.78292 13.3411 4.22343 12.4087C4.66284 11.4784 4.9998 10.1441 4.9998 7.99951C4.99993 6.14335 5.73671 4.36241 7.04912 3.0498C8.36175 1.73717 10.144 0.999159 12.0003 0.999023ZM12.0003 3C10.6746 3.00014 9.40168 3.52605 8.46415 4.46338C7.5266 5.40095 6.99944 6.67361 6.99931 7.99951C6.99931 10.3535 6.63017 11.9973 6.03251 13.2627C5.44219 14.5123 4.65891 15.3197 4.00078 15.999H19.9998C19.3403 15.3192 18.5566 14.5116 17.9666 13.2627C17.3689 11.9971 16.9998 10.353 16.9998 7.99951C16.9997 6.6736 16.4725 5.40095 15.535 4.46338C14.5975 3.52641 13.3257 3.00019 12.0003 3Z" fill="currentColor"/>
</svg>
