<svg width="24" height="24" viewBox="0 0 24 24" fill="currentColor" xmlns="http://www.w3.org/2000/svg">
<path d="M3 18V16C3 15.4477 3.44772 15 4 15C4.55228 15 5 15.4477 5 16V18L5.00488 18.0986C5.02757 18.3276 5.12883 18.5429 5.29297 18.707C5.48051 18.8946 5.73478 19 6 19H8C8.55228 19 9 19.4477 9 20C9 20.5523 8.55228 21 8 21H6C5.20435 21 4.44151 20.6837 3.87891 20.1211C3.3163 19.5585 3 18.7956 3 18ZM19 18V16C19 15.4477 19.4477 15 20 15C20.5523 15 21 15.4477 21 16V18C21 18.7957 20.6837 19.5585 20.1211 20.1211C19.5585 20.6837 18.7957 21 18 21H16C15.4477 21 15 20.5523 15 20C15 19.4477 15.4477 19 16 19H18C18.2652 19 18.5195 18.8946 18.707 18.707C18.8946 18.5195 19 18.2652 19 18ZM17 11C17.5523 11 18 11.4477 18 12C18 12.5523 17.5523 13 17 13H7C6.44772 13 6 12.5523 6 12C6 11.4477 6.44772 11 7 11H17ZM3 8V6C3 5.20435 3.3163 4.44152 3.87891 3.87891C4.44152 3.3163 5.20435 3 6 3H8C8.55228 3 9 3.44772 9 4C9 4.55228 8.55228 5 8 5H6C5.73478 5 5.4805 5.10543 5.29297 5.29297C5.10543 5.4805 5 5.73478 5 6V8C5 8.55228 4.55228 9 4 9C3.44772 9 3 8.55228 3 8ZM19 8V6C19 5.73478 18.8946 5.48051 18.707 5.29297C18.5429 5.12883 18.3276 5.02757 18.0986 5.00488L18 5H16C15.4477 5 15 4.55228 15 4C15 3.44772 15.4477 3 16 3H18C18.7956 3 19.5585 3.3163 20.1211 3.87891C20.6837 4.44151 21 5.20435 21 6V8C21 8.55228 20.5523 9 20 9C19.4477 9 19 8.55228 19 8Z" fill="currentColor"/>
</svg>
