<svg width="24" height="24" viewBox="0 0 24 24" fill="currentColor" xmlns="http://www.w3.org/2000/svg">
<path fill-rule="evenodd" clip-rule="evenodd" d="M19.0005 1.99951C20.657 1.99978 22.0002 3.34304 22.0005 4.99951V19.0005C22.0002 20.657 20.657 22.0002 19.0005 22.0005H4.99951C3.34304 22.0002 1.99978 20.657 1.99951 19.0005V4.99951C1.99978 3.34304 3.34304 1.99978 4.99951 1.99951H19.0005ZM4.00049 19.0005C4.00075 19.5524 4.44761 19.9992 4.99951 19.9995H7.99951V16.0005H4.00049V19.0005ZM16.0005 19.9995H19.0005C19.5524 19.9992 19.9992 19.5524 19.9995 19.0005V16.0005H16.0005V19.9995ZM10.0005 19.9995H13.9995V16.0005H10.0005V19.9995ZM4.00049 13.9995H7.99951V10.0005H4.00049V13.9995ZM16.0005 13.9995H19.9995V10.0005H16.0005V13.9995ZM10.0005 13.9995H13.9995V10.0005H10.0005V13.9995ZM4.99951 4.00049C4.44761 4.00075 4.00075 4.44761 4.00049 4.99951V7.99951H7.99951V4.00049H4.99951ZM16.0005 7.99951H19.9995V4.99951C19.9992 4.44761 19.5524 4.00075 19.0005 4.00049H16.0005V7.99951ZM10.0005 7.99951H13.9995V4.00049H10.0005V7.99951Z" fill="currentColor"/>
</svg>
