<svg width="24" height="24" viewBox="0 0 24 24" fill="currentColor" xmlns="http://www.w3.org/2000/svg">
<path d="M1.85429 1.85359C2.24483 1.46338 2.87793 1.4632 3.26835 1.85359L21.7029 20.2882C22.0932 20.6786 22.0931 21.3117 21.7029 21.7022C21.3124 22.0927 20.6784 22.0927 20.2879 21.7022L1.85429 3.26765C1.4638 2.87713 1.46378 2.2441 1.85429 1.85359Z" fill="#151515"/>
<path d="M12.0115 18.9991C12.563 18.9999 13.0103 19.4485 13.0105 20.0001C13.0102 20.5516 12.563 20.9993 12.0115 21.0001H12.0008C11.4487 21 11.0011 20.5521 11.0008 20.0001C11.001 19.4481 11.4487 18.9992 12.0008 18.9991H12.0115Z" fill="#151515"/>
<path d="M12.4969 16.0323C12.3328 16.0118 12.1668 16.0011 11.9998 16.0011C10.9532 16.0012 9.94751 16.4111 9.19999 17.1436C8.80558 17.5296 8.17137 17.5241 7.78496 17.13C7.39858 16.7357 7.40557 16.1015 7.7996 15.7149C8.58776 14.9424 9.56728 14.4094 10.6248 14.1602L12.4969 16.0323Z" fill="#151515"/>
<path d="M8.27421 11.8096C7.32898 12.2395 6.4564 12.8329 5.70097 13.5733C5.3067 13.9598 4.67257 13.9527 4.28593 13.5587C3.89999 13.1643 3.90658 12.532 4.30058 12.1456C5.0445 11.4164 5.88165 10.8042 6.783 10.3184L8.27421 11.8096Z" fill="#151515"/>
<path d="M12.5496 9.01375C15.2292 9.14775 17.775 10.2587 19.7 12.1456C20.0939 12.5321 20.1007 13.1644 19.7146 13.5587C19.3281 13.9529 18.694 13.9597 18.2996 13.5733C17.3755 12.6676 16.2761 11.9821 15.0828 11.547L12.5496 9.01375Z" fill="#151515"/>
<path d="M4.58964 8.12508C3.91295 8.54722 3.2685 9.02734 2.66679 9.56551C2.25544 9.93317 1.62291 9.89907 1.25468 9.48836C0.886677 9.07692 0.922721 8.44452 1.33378 8.07625C1.90547 7.56492 2.51041 7.09803 3.14238 6.67781L4.58964 8.12508Z" fill="#151515"/>
<path d="M12.0008 4.00008C15.9361 4.00027 19.7336 5.45276 22.6668 8.07625C23.0775 8.44456 23.1138 9.07703 22.7459 9.48836C22.3778 9.89908 21.7452 9.93279 21.3338 9.56551C18.7673 7.27015 15.444 6.00223 12.0008 6.00203C11.2342 6.00204 10.474 6.06746 9.72636 6.19051L8.03593 4.50008C9.32196 4.17098 10.6533 4.00009 12.0008 4.00008Z" fill="currentColor"/>
</svg>
