<svg width="24" height="24" viewBox="0 0 24 24" fill="currentColor" xmlns="http://www.w3.org/2000/svg">
<path fill-rule="evenodd" clip-rule="evenodd" d="M14.4451 3.16795C14.7518 2.96347 15.1464 2.94437 15.4714 3.11815C15.7966 3.29216 15.9998 3.63119 15.9998 3.99998V7.01268C16.4098 7.00103 16.7734 6.95499 17.1345 6.8242C17.7111 6.61531 18.3919 6.14703 19.1589 4.95799L19.2263 4.86619C19.3932 4.66255 19.6352 4.53147 19.9002 4.50487C20.2029 4.47456 20.5031 4.58399 20.7156 4.80174C21.9614 6.08026 22.4852 7.51582 22.7205 8.9326C22.9422 10.268 22.92 11.7662 22.9978 12.9336C23.02 13.2674 22.8737 13.5904 22.6082 13.7939C22.3425 13.9973 21.992 14.0547 21.6755 13.9463C20.1578 13.4259 18.5819 14.3587 17.9509 16.3076C17.8174 16.7201 17.4334 17 16.9998 17C15.8229 17 15.1052 17.2156 14.5623 17.6426C13.9932 18.0902 13.4717 18.8818 12.9392 20.3428C12.7952 20.7374 12.4199 21 11.9998 21C11.5798 20.9999 11.2043 20.7373 11.0603 20.3428C10.5278 18.8818 10.0064 18.0902 9.43727 17.6426C8.89434 17.2157 8.1767 17 6.99977 17C6.56625 16.9999 6.18211 16.7201 6.04859 16.3076C5.41756 14.3587 3.84181 13.4258 2.32398 13.9463C2.00748 14.0546 1.65699 13.9973 1.39137 13.7939C1.12593 13.5904 0.979514 13.2673 1.00172 12.9336C1.07954 11.7662 1.05731 10.268 1.27906 8.9326C1.51435 7.51585 2.03825 6.08025 3.28395 4.80174L3.36695 4.72557C3.5709 4.55889 3.83426 4.4784 4.09938 4.50487C4.40233 4.53519 4.67552 4.70216 4.84059 4.95799C5.60753 6.14694 6.28845 6.61526 6.865 6.8242C7.22615 6.95503 7.58977 7.00101 7.99977 7.01268V3.99998C7.99977 3.63127 8.20305 3.2922 8.52809 3.11815C8.85314 2.94428 9.24769 2.96354 9.55445 3.16795L11.9998 4.79783L14.4451 3.16795ZM20.0125 7.14354C19.3169 7.93089 18.5889 8.42382 17.8152 8.70408C17.1372 8.94961 16.4686 9.01141 15.8679 9.01756C15.6891 9.69667 15.333 10.323 14.8279 10.8281C14.0778 11.5782 13.0606 12 11.9998 12C10.939 11.9999 9.92173 11.5782 9.17164 10.8281C8.66659 10.323 8.31137 9.69656 8.13258 9.01756C7.53169 9.01144 6.86256 8.94974 6.18434 8.70408C5.41057 8.42374 4.6817 7.93116 3.98609 7.14354C3.59473 7.79787 3.37862 8.50242 3.2527 9.26072C3.11362 10.0984 3.08922 10.9075 3.05738 11.7949C5.12787 11.7283 6.8455 13.1459 7.69215 15.0234C8.81921 15.1024 9.81451 15.3956 10.6736 16.0713C11.1914 16.4785 11.6234 16.9971 11.9998 17.6211C12.3761 16.9971 12.8082 16.4785 13.3259 16.0713C14.1847 15.3958 15.1798 15.1025 16.3064 15.0234C17.1528 13.146 18.8711 11.7289 20.9412 11.7949C20.9093 10.9075 20.8859 10.0984 20.7468 9.26072C20.6209 8.50224 20.404 7.79801 20.0125 7.14354ZM12.5545 6.83201C12.2186 7.05583 11.7809 7.05591 11.4451 6.83201L9.99977 5.86815V7.99998C9.99977 8.53035 10.2107 9.03899 10.5857 9.41404C10.9607 9.78906 11.4694 9.99991 11.9998 9.99998C12.5301 9.99998 13.0388 9.78904 13.4138 9.41404C13.7889 9.03897 13.9998 8.53042 13.9998 7.99998V5.86815L12.5545 6.83201Z" fill="currentColor"/>
</svg>
