<svg width="24" height="24" viewBox="0 0 24 24" fill="currentColor" xmlns="http://www.w3.org/2000/svg">
<path d="M16.293 8.29296C16.6835 7.90244 17.3165 7.90244 17.707 8.29296C18.0976 8.68349 18.0976 9.3165 17.707 9.70702L11.707 15.707C11.3165 16.0975 10.6835 16.0975 10.293 15.707L7.29298 12.707C6.90245 12.3165 6.90245 11.6835 7.29298 11.293C7.6835 10.9024 8.31651 10.9024 8.70704 11.293L11 13.5859L16.293 8.29296Z" fill="currentColor"/>
<path fill-rule="evenodd" clip-rule="evenodd" d="M11.999 1.00097C13.4441 0.99922 14.8758 1.28192 16.2109 1.83495C17.5452 2.38768 18.7572 3.19848 19.7774 4.2207L20.1514 4.6123C20.9997 5.5464 21.6811 6.62177 22.165 7.79003C22.7177 9.1244 23.0015 10.5547 23 11.999L22.9873 12.54C22.9266 13.8004 22.649 15.0427 22.165 16.2109C21.6123 17.5451 20.8005 18.7562 19.7783 19.7764C18.7578 20.7994 17.546 21.612 16.2109 22.165C14.8758 22.7181 13.4441 23.0017 11.999 23C10.5548 23.0015 9.12441 22.7177 7.79005 22.165C6.45487 21.612 5.24133 20.8005 4.22071 19.7773C3.19873 18.7573 2.38761 17.5449 1.83497 16.2109C1.28193 14.8758 0.998261 13.4441 1.00001 11.999C0.998519 10.5547 1.28231 9.1244 1.83497 7.79003C2.38803 6.45486 3.19948 5.24132 4.22266 4.2207C5.2429 3.19839 6.45569 2.38769 7.79005 1.83495C9.12441 1.28229 10.5548 0.999482 11.999 1.00097ZM11.999 2.99999C10.8173 2.99854 9.64645 3.23038 8.5547 3.68261C7.46304 4.13483 6.47122 4.79819 5.63673 5.63476L5.63477 5.63671C4.79821 6.4712 4.13484 7.46302 3.68263 8.55468C3.23039 9.64643 2.99855 10.8173 3.00001 11.999V12.001C2.99855 13.1827 3.23039 14.3536 3.68263 15.4453C4.07838 16.4007 4.63633 17.2791 5.33009 18.043L5.63477 18.3633L5.63673 18.3652C6.47122 19.2018 7.46304 19.8652 8.5547 20.3174C9.64645 20.7696 10.8173 21.0014 11.999 21H12.001C13.1827 21.0014 14.3536 20.7696 15.4453 20.3174C16.537 19.8652 17.5288 19.2018 18.3633 18.3652L18.3652 18.3633C19.2018 17.5288 19.8652 16.537 20.3174 15.4453C20.7696 14.3536 21.0015 13.1827 21 12.001V11.999C21.0015 10.8173 20.7696 9.64643 20.3174 8.55468C19.8652 7.46302 19.2018 6.47121 18.3652 5.63671L18.3633 5.63476C17.5288 4.79819 16.537 4.13483 15.4453 3.68261C14.3536 3.23038 13.1827 2.99854 12.001 2.99999H11.999Z" fill="currentColor"/>
</svg>
