<svg width="24" height="24" viewBox="0 0 24 24" fill="currentColor" xmlns="http://www.w3.org/2000/svg">
<path fill-rule="evenodd" clip-rule="evenodd" d="M15.9997 1.00078C16.552 1.00078 16.9993 1.4481 16.9993 2.00039V3H18.9997C20.6564 3 21.9995 4.34332 21.9997 6V19.9992C21.9997 21.6561 20.6566 22.9992 18.9997 22.9992H5.00049C3.34363 22.9992 2.00049 21.6561 2.00049 19.9992V6C2.0007 4.34332 3.34377 3 5.00049 3H7.00088V2.00039C7.00088 1.4481 7.4482 1.00078 8.00049 1.00078C8.55264 1.00094 9.0001 1.4482 9.0001 2.00039V3H15.0001V2.00039C15.0001 1.4482 15.4476 1.00094 15.9997 1.00078ZM3.99971 10.9992V19.9992C3.99971 20.5515 4.4482 21 5.00049 21H18.9997C19.552 21 20.0005 20.5515 20.0005 19.9992V10.9992H3.99971ZM5.00049 4.99922C4.44833 4.99922 3.99992 5.44789 3.99971 6V9H20.0005V6C20.0003 5.44789 19.5519 4.99922 18.9997 4.99922H16.9993V6C16.9991 6.5521 16.5519 7.00078 15.9997 7.00078C15.4477 7.00062 15.0003 6.552 15.0001 6V4.99922H9.0001V6C8.99988 6.552 8.55251 7.00062 8.00049 7.00078C7.44833 7.00078 7.00109 6.5521 7.00088 6V4.99922H5.00049Z" fill="currentColor"/>
</svg>
