<svg width="70" height="100" viewBox="0 0 70 100" fill="none" xmlns="http://www.w3.org/2000/svg">
<path d="M5.94893 5.90412C8.66437 8.60382 11.3717 11.312 14.07 14.029C20.1388 20.1397 26.1632 26.2951 32.1451 32.4933C34.7569 26.811 41.4192 22.5236 47.25 23.3041C51.1502 23.3884 55.5548 24.8313 58.3191 28.0854C60.2626 30.3612 61.3473 32.9557 61.8251 35.6811C63.7567 34.1383 65.7778 32.6856 67.7706 31.2044C68.5198 30.6476 69.2652 30.0868 70 29.5154C69.4326 30.2553 68.8756 31.0059 68.3226 31.7602C66.1506 34.723 64.0406 37.7483 61.6123 40.4529L58.7643 43.5143L58.625 39.2071C58.1163 32.8553 53.3741 27.9966 47.25 28.6783C41.8728 28.7918 38.4736 32.1398 37.7728 37.1481C37.7201 37.4782 37.6779 37.8637 37.6506 38.2236C41.5269 42.2755 45.386 46.3448 49.2256 50.4337L51.1986 52.5339L49.2256 54.4122C36.955 66.0949 24.5169 77.6093 11.9107 88.9541C9.11544 91.4697 2.81178 97.501 0 100C2.48181 97.1687 8.47163 90.8215 10.9699 88.0068C21.599 76.0319 32.3796 64.209 43.3074 52.5348C39.472 48.8722 35.652 45.1941 31.8495 41.4983C24.2066 34.0701 16.63 26.5753 9.11996 19.0133C8.37532 18.2635 7.63306 17.511 6.88973 16.7599C6.71362 32.9103 6.3236 49.0607 5.71907 65.2112C10.5836 60.7178 15.4732 56.2495 20.389 51.8077C21.2883 50.9951 22.1882 50.1828 23.0892 49.3719C25.8845 46.8563 28.6882 44.3492 31.5 41.8502C29.0182 44.6815 26.5283 47.5046 24.03 50.3192C23.2247 51.2265 22.4179 52.1326 21.6109 53.0381C16.0931 59.2296 10.5351 65.3806 4.93721 71.4913L0 76.2795C0 50.8326 0 25.5507 1.0659e-05 0L5.94893 5.90412Z" fill="currentColor"/>
</svg>
