<svg width="24" height="24" viewBox="0 0 24 24" fill="currentColor" xmlns="http://www.w3.org/2000/svg">
<path d="M3.0001 2.0004C3.55238 2.0004 3.99971 2.44772 3.99971 3.00001V18.9996C3.99971 19.2648 4.10514 19.5199 4.29268 19.7074C4.48021 19.895 4.73527 20.0004 5.00049 20.0004H21.0001C21.5524 20.0004 21.9997 20.4477 21.9997 21C21.9997 21.5523 21.5524 21.9996 21.0001 21.9996H5.00049C4.20484 21.9996 3.44083 21.6845 2.87822 21.1219C2.31561 20.5593 2.00049 19.7953 2.00049 18.9996V3.00001C2.00049 2.44772 2.44781 2.0004 3.0001 2.0004Z" fill="currentColor"/>
<path d="M8.00049 13.0008C8.55259 13.001 9.0001 13.4482 9.0001 14.0004V17.0004C8.99989 17.5524 8.55246 17.9998 8.00049 18C7.44833 18 7.00109 17.5525 7.00088 17.0004V14.0004C7.00088 13.4481 7.4482 13.0008 8.00049 13.0008Z" fill="currentColor"/>
<path d="M12.9997 4.00079C13.552 4.00079 13.9993 4.44811 13.9993 5.0004V17.0004C13.9991 17.5525 13.5519 18 12.9997 18C12.4477 17.9998 12.0003 17.5524 12.0001 17.0004V5.0004C12.0001 4.44825 12.4476 4.001 12.9997 4.00079Z" fill="currentColor"/>
<path d="M18.0001 8.0004C18.5524 8.0004 18.9997 8.44772 18.9997 9.00001V17.0004C18.9995 17.5525 18.5523 18 18.0001 18C17.4479 18 17.0007 17.5525 17.0005 17.0004V9.00001C17.0005 8.44772 17.4478 8.0004 18.0001 8.0004Z" fill="currentColor"/>
</svg>
