<svg width="24" height="24" viewBox="0 0 24 24" fill="currentColor" xmlns="http://www.w3.org/2000/svg">
<path d="M12 4.99951C12.5523 4.99951 13.0005 5.44772 13.0005 6V11.3818L16.4473 13.106C16.9411 13.353 17.141 13.9538 16.894 14.4478C16.6469 14.9413 16.046 15.1414 15.5522 14.8945L11.5532 12.895C11.2144 12.7256 10.9995 12.3788 10.9995 12V6C10.9995 5.44772 11.4477 4.99951 12 4.99951Z" fill="currentColor"/>
<path fill-rule="evenodd" clip-rule="evenodd" d="M12 0.999023C18.0747 0.999288 22.9993 5.92525 22.9995 12C22.9992 18.0747 18.0747 22.9992 12 22.9995C5.92525 22.9993 0.999288 18.0747 0.999023 12C0.999283 5.92525 5.92525 0.999283 12 0.999023ZM12 3C7.02982 3.00026 3.00026 7.02982 3 12C3.00026 16.9702 7.02982 20.9997 12 21C16.9702 20.9997 20.9997 16.9702 21 12C20.9997 7.02982 16.9702 3.00026 12 3Z" fill="currentColor"/>
</svg>
